<?xml version="1.0" encoding="utf-8"?>
<svg xmlns="http://www.w3.org/2000/svg" viewBox="48 32 619.973 185.683" xmlns:bx="https://boxy-svg.com">
  <rect width="240" height="128" style="stroke: rgb(0, 0, 0); fill: none;" x="48" y="32" rx="7" ry="7"/>
  <rect width="272.383" height="124.593" style="stroke: rgb(0, 0, 0); stroke-width: 1; fill: none;" x="395.59" y="32" rx="7" ry="7"/>
  <defs>
    <bx:grid x="0" y="0" width="16" height="16"/>
    <bx:export>
      <bx:file format="png" path="Block Diagram.png" background="#fff" dpi="300" width="1920" height="576"/>
    </bx:export>
  </defs>
  <text style="fill: rgb(51, 51, 51); font-family: C059; font-size: 17px; white-space: pre;" x="51" y="47.684">CanSat</text>
  <text style="fill: rgb(51, 51, 51); font-family: C059; font-size: 17px; white-space: pre;" transform="matrix(1, 0, 0, 1, 94.589928, -234.343324)"><tspan x="304" y="282.027">Ground</tspan><tspan x="304" dy="1em">​</tspan></text>
  <rect x="64" y="64" width="64" height="80" style="stroke: rgb(0, 0, 0); fill: rgba(229, 152, 60, 0.667);"/>
  <rect x="176" y="64" width="96" height="16" style="stroke: rgb(0, 0, 0); fill: rgb(255, 214, 0);"/>
  <text style="fill: rgb(51, 51, 51); font-family: Carlito; white-space: pre; text-anchor: middle; font-size: 9.9px;" x="96" y="107.949">Arduino</text>
  <text style="fill: rgb(51, 51, 51); font-family: Carlito; white-space: pre; font-size: 7.8px; stroke-width: 1;" x="181.837" y="74.598">GY-91</text>
  <rect x="176.427" y="96" width="96" height="16" style="stroke: rgb(0, 0, 0); stroke-width: 1; fill: rgb(117, 255, 0);"/>
  <text style="fill: rgb(51, 51, 51); font-family: Carlito; white-space: pre; font-size: 7.8px; stroke-width: 1;" x="182.264" y="106.598">Datalogger</text>
  <rect x="176.427" y="128" width="96" height="16" style="stroke: rgb(0, 0, 0); stroke-width: 1; fill: rgb(0, 6, 255);"/>
  <text style="fill: rgb(223, 223, 223); font-family: Carlito; font-size: 7.8px; white-space: pre;" x="182.264" y="138.598">APC-220</text>
  <path style="fill: none; stroke: rgb(0, 0, 0);" d="M 176.391 137.171 L 128 105.119"/>
  <path style="fill: none; stroke: rgb(0, 0, 0);" d="M 144.579 96.837 L 140.473 96.431 L 140.867 92.031"/>
  <path style="fill: none; stroke: rgb(0, 0, 0);" d="M 169.258 137.171 L 169.441 133.393 L 173.611 132.517"/>
  <text style="fill: rgb(51, 51, 51); font-family: C059; font-size: 5px; white-space: pre; text-anchor: middle; transform-box: fill-box; transform-origin: 50% 50%;" x="139.011" y="80.53" transform="matrix(0.829038, -0.559193, 0.559193, 0.829038, 19.012999, 1.184497)">Raw Sensor Data</text>
  <text style="fill: rgb(51, 51, 51); font-family: C059; font-size: 5px; white-space: pre; stroke-width: 1; transform-origin: 150.804px 108.072px; text-anchor: middle;" x="136.607" y="109.262" transform="matrix(0.999847, -0.017452, 0.017453, 0.999847, 15.376557, -0.360347)">Sensor Data</text>
  <path style="fill: none; stroke: rgb(0, 0, 0);" d="M 166.227 101.934 L 169.258 104.446 L 166.388 106.702"/>
  <path style="fill: none; stroke: rgb(0, 0, 0);" d="M 176.064 71.597 L 128 105.119"/>
  <path style="fill: none; stroke: rgb(0, 0, 0);" d="M 176.391 104.315 L 128 105.119"/>
  <text style="fill: rgb(51, 51, 51); font-family: C059; font-size: 5px; white-space: pre; stroke-width: 1; transform-box: fill-box; transform-origin: 50% 50%; text-anchor: middle;" x="136.607" y="109.262" transform="matrix(0.829037, 0.559193, -0.559193, 0.829037, 13.325759, 16.949194)">Radio Packets<tspan x="136.60699462890625" dy="1em">​</tspan>(bidirectional)</text>
  <path style="fill: none; stroke: rgb(0, 0, 0);" d="M 134.733 107.372 L 134.959 110.61 L 132.015 112"/>
  <path style="fill: none; stroke: rgb(0, 0, 0); transform-box: fill-box; transform-origin: 50% 50%;" d="M 335.069 27.377 L 335.068 167.472" transform="matrix(0.529919, 0.848048, -0.848048, 0.529919, 0.000011, -0.000018)"/>
  <path style="fill: none; stroke: rgb(0, 0, 0); stroke-width: 1; transform-box: fill-box; transform-origin: 50% 50%;" d="M 338.703 33.192 L 338.702 173.285" transform="matrix(0.529918, 0.848049, -0.848049, 0.529918, -0.000004, 0.000006)"/>
  <path style="fill: none; stroke: rgb(0, 0, 0); transform-box: fill-box; transform-origin: 50% 50%;" d="M 322.178 105.816 L 325.754 100.349 L 328.772 105.83" transform="matrix(0.529919, 0.848048, -0.848048, 0.529919, 0.000001, -0.000008)"/>
  <path style="fill: none; stroke: rgb(0, 0, 0); transform-box: fill-box; transform-origin: 50% 50%;" d="M 343.339 95.638 L 346.766 100.867 L 350.375 95.784" transform="matrix(0.529919, 0.848048, -0.848048, 0.529919, -0.000007, -0.000001)"/>
  <rect x="493.392" y="58.415" width="64" height="13.479" style="stroke: rgb(0, 0, 0); fill: rgba(229, 152, 60, 0.667); stroke-width: 1;"/>
  <text style="fill: rgb(51, 51, 51); font-family: Carlito; white-space: pre; text-anchor: middle; font-size: 7.2px; stroke-width: 1;" x="525.392" y="68.187">Arduino</text>
  <rect x="398.59" y="55.081" width="64.427" height="16" style="stroke: rgb(0, 0, 0); stroke-width: 1; fill: rgb(0, 6, 255);"/>
  <text style="fill: rgb(223, 223, 223); font-family: Carlito; font-size: 7.8px; white-space: pre; stroke-width: 1;" x="404.427" y="65.679">APC-220</text>
  <text style="fill: rgb(51, 51, 51); font-family: C059; font-size: 5px; white-space: pre; stroke-width: 1; transform-origin: 152.854px 110.639px; text-anchor: middle;" x="136.607" y="109.262" transform="matrix(0.573515, 0, 0, 0.573515, 336.175753, -49.11921)">Radio Packets<tspan x="136.60699462890625" dy="1em">​</tspan>(bidirectional)</text>
  <path style="fill: none; stroke: rgb(0, 0, 0);" d="M 463.017 65.346 L 493.392 65.536"/>
  <path style="fill: none; stroke: rgb(0, 0, 0);" d="M 469.101 63.163 L 466.568 65.449 L 468.686 67.893"/>
  <path style="fill: none; stroke: rgb(0, 0, 0);" d="M 489.962 63.232 L 491.85 65.625 L 490.034 68.049"/>
  <rect x="493.392" y="76.792" width="64" height="75.228" style="stroke: rgb(0, 0, 0); stroke-width: 1; fill: rgba(174, 174, 174, 0.667);"/>
  <text style="fill: rgb(51, 51, 51); font-family: Carlito; white-space: pre; text-anchor: middle; font-size: 9.9px; stroke-width: 1;" x="525.392" y="99.306">Laptop</text>
  <path style="fill: none; stroke: rgb(0, 0, 0);" d="M 553.164 72.16 L 553 76.792"/>
  <path style="fill: none; stroke: rgb(0, 0, 0);" d="M 554.732 72.296 L 554.732 76.792"/>
  <text style="fill: rgb(51, 51, 51); font-family: C059; font-size: 5px; white-space: pre; stroke-width: 1; transform-origin: 152.854px 110.639px; text-anchor: middle;" x="136.607" y="109.262" transform="matrix(0.573515, 0, 0, 0.573515, 429.818118, -35.791825)">(bidirectional<tspan x="136.60699462890625" dy="1em">​</tspan>serial connection)</text>
  <rect x="500.852" y="114.069" width="49.081" height="24.688" style="stroke: rgb(0, 0, 0); fill: rgb(203, 251, 255);"/>
  <text style="fill: rgb(51, 51, 51); font-family: Carlito; font-size: 6px; text-anchor: middle; white-space: pre;" transform="matrix(1, 0, 0, 1, 379.392093, -219.979204)"><tspan x="146" y="345.449">Internal</tspan><tspan x="146" dy="1em">​</tspan><tspan>Server</tspan></text>
  <rect x="589.941" y="111.326" width="11.501" height="18.693" style="stroke: rgb(0, 0, 0); stroke-width: 1; fill: rgba(174, 174, 174, 0.667);"/>
  <rect x="606.097" y="106.672" width="11.501" height="18.693" style="stroke: rgb(0, 0, 0); stroke-width: 1; fill: rgba(174, 174, 174, 0.667);"/>
  <rect x="623.891" y="125.365" width="11.501" height="18.693" style="stroke: rgb(0, 0, 0); stroke-width: 1; fill: rgba(174, 174, 174, 0.667);"/>
  <rect x="628.72" y="95.376" width="29.582" height="18.693" style="stroke: rgb(0, 0, 0); stroke-width: 1; fill: rgba(174, 174, 174, 0.667);"/>
  <text style="fill: rgb(51, 51, 51); font-family: Carlito; white-space: pre; text-anchor: middle; font-size: 9.9px; stroke-width: 1;" x="212.855" y="306.388" transform="matrix(0.595174, 0, 0, 0.595174, 470.870731, -88.842538)">Personal Devices<tspan x="212.85499572753906" dy="1em">​</tspan>(e.g. phones)</text>
  <path d="M 544.389 131.815 C 543.108 131.815 541.948 132.322 541.095 133.148 C 540.916 133.322 540.63 133.317 540.458 133.138 C 540.286 132.959 540.289 132.674 540.468 132.501 C 541.481 131.518 542.865 130.913 544.389 130.913 C 545.913 130.913 547.297 131.518 548.312 132.501 C 548.491 132.675 548.495 132.96 548.322 133.138 C 548.148 133.316 547.862 133.322 547.684 133.148 C 546.83 132.322 545.67 131.815 544.389 131.815 Z M 543.713 136.551 C 543.713 136.177 544.016 135.874 544.389 135.874 C 544.763 135.874 545.066 136.177 545.066 136.551 C 545.066 136.924 544.763 137.227 544.389 137.227 C 544.016 137.227 543.713 136.924 543.713 136.551 Z M 542.698 135.059 C 542.533 135.247 542.248 135.264 542.061 135.099 C 541.873 134.934 541.856 134.649 542.022 134.462 C 542.599 133.808 543.447 133.394 544.389 133.394 C 545.332 133.394 546.179 133.808 546.757 134.462 C 546.922 134.649 546.904 134.934 546.717 135.099 C 546.531 135.264 546.245 135.245 546.081 135.059 C 545.666 134.59 545.063 134.295 544.389 134.295 C 543.715 134.295 543.112 134.59 542.698 135.059 Z" style="stroke-width: 1;"/>
  <path d="M 597.997 125.887 C 597.256 125.887 596.585 126.18 596.091 126.658 C 595.988 126.759 595.822 126.756 595.723 126.653 C 595.623 126.549 595.625 126.384 595.728 126.284 C 596.315 125.715 597.116 125.365 597.997 125.365 C 598.879 125.365 599.68 125.715 600.268 126.284 C 600.371 126.385 600.374 126.55 600.274 126.653 C 600.173 126.756 600.007 126.759 599.904 126.658 C 599.41 126.18 598.739 125.887 597.997 125.887 Z M 597.606 128.628 C 597.606 128.411 597.782 128.236 597.997 128.236 C 598.214 128.236 598.389 128.411 598.389 128.628 C 598.389 128.844 598.214 129.019 597.997 129.019 C 597.782 129.019 597.606 128.844 597.606 128.628 Z M 597.019 127.764 C 596.923 127.873 596.758 127.883 596.65 127.788 C 596.541 127.692 596.532 127.527 596.628 127.419 C 596.962 127.04 597.452 126.801 597.997 126.801 C 598.543 126.801 599.033 127.04 599.368 127.419 C 599.463 127.527 599.453 127.692 599.345 127.788 C 599.237 127.883 599.072 127.872 598.977 127.764 C 598.736 127.493 598.388 127.322 597.997 127.322 C 597.607 127.322 597.258 127.493 597.019 127.764 Z" style="stroke-width: 1;"/>
  <path d="M 614.252 121.233 C 613.511 121.233 612.84 121.526 612.346 122.004 C 612.243 122.105 612.077 122.102 611.978 121.999 C 611.878 121.895 611.88 121.73 611.983 121.63 C 612.57 121.061 613.371 120.711 614.252 120.711 C 615.134 120.711 615.935 121.061 616.523 121.63 C 616.626 121.731 616.629 121.896 616.529 121.999 C 616.428 122.102 616.262 122.105 616.159 122.004 C 615.665 121.526 614.994 121.233 614.252 121.233 Z M 613.861 123.974 C 613.861 123.757 614.037 123.582 614.252 123.582 C 614.469 123.582 614.644 123.757 614.644 123.974 C 614.644 124.19 614.469 124.365 614.252 124.365 C 614.037 124.365 613.861 124.19 613.861 123.974 Z M 613.274 123.11 C 613.178 123.219 613.013 123.229 612.905 123.134 C 612.796 123.038 612.787 122.873 612.883 122.765 C 613.217 122.386 613.707 122.147 614.252 122.147 C 614.798 122.147 615.288 122.386 615.623 122.765 C 615.718 122.873 615.708 123.038 615.6 123.134 C 615.492 123.229 615.327 123.218 615.232 123.11 C 614.991 122.839 614.643 122.668 614.252 122.668 C 613.862 122.668 613.513 122.839 613.274 123.11 Z" style="stroke-width: 1;"/>
  <path d="M 632.042 139.926 C 631.301 139.926 630.63 140.219 630.136 140.697 C 630.033 140.798 629.867 140.795 629.768 140.692 C 629.668 140.588 629.67 140.423 629.773 140.323 C 630.36 139.754 631.161 139.404 632.042 139.404 C 632.924 139.404 633.725 139.754 634.313 140.323 C 634.416 140.424 634.419 140.589 634.319 140.692 C 634.218 140.795 634.052 140.798 633.949 140.697 C 633.455 140.219 632.784 139.926 632.042 139.926 Z M 631.651 142.667 C 631.651 142.45 631.827 142.275 632.042 142.275 C 632.259 142.275 632.434 142.45 632.434 142.667 C 632.434 142.883 632.259 143.058 632.042 143.058 C 631.827 143.058 631.651 142.883 631.651 142.667 Z M 631.064 141.803 C 630.968 141.912 630.803 141.922 630.695 141.827 C 630.586 141.731 630.577 141.566 630.673 141.458 C 631.007 141.079 631.497 140.84 632.042 140.84 C 632.588 140.84 633.078 141.079 633.413 141.458 C 633.508 141.566 633.498 141.731 633.39 141.827 C 633.282 141.922 633.117 141.911 633.022 141.803 C 632.781 141.532 632.433 141.361 632.042 141.361 C 631.652 141.361 631.303 141.532 631.064 141.803 Z" style="stroke-width: 1;"/>
  <path d="M 654.952 109.937 C 654.211 109.937 653.54 110.23 653.046 110.708 C 652.943 110.809 652.777 110.806 652.678 110.703 C 652.578 110.599 652.58 110.434 652.683 110.334 C 653.27 109.765 654.071 109.415 654.952 109.415 C 655.834 109.415 656.635 109.765 657.223 110.334 C 657.326 110.435 657.329 110.6 657.229 110.703 C 657.128 110.806 656.962 110.809 656.859 110.708 C 656.365 110.23 655.694 109.937 654.952 109.937 Z M 654.561 112.678 C 654.561 112.461 654.737 112.286 654.952 112.286 C 655.169 112.286 655.344 112.461 655.344 112.678 C 655.344 112.894 655.169 113.069 654.952 113.069 C 654.737 113.069 654.561 112.894 654.561 112.678 Z M 653.974 111.814 C 653.878 111.923 653.713 111.933 653.605 111.838 C 653.496 111.742 653.487 111.577 653.583 111.469 C 653.917 111.09 654.407 110.851 654.952 110.851 C 655.498 110.851 655.988 111.09 656.323 111.469 C 656.418 111.577 656.408 111.742 656.3 111.838 C 656.192 111.933 656.027 111.922 655.932 111.814 C 655.691 111.543 655.343 111.372 654.952 111.372 C 654.562 111.372 654.213 111.543 653.974 111.814 Z" style="stroke-width: 1;"/>
  <path d="M 260.647 100.312 C 260.463 100.312 260.312 100.463 260.312 100.647 L 260.312 107.353 C 260.312 107.537 260.463 107.688 260.647 107.688 L 267.353 107.688 C 267.537 107.688 267.688 107.537 267.688 107.353 L 267.688 102.267 C 267.688 102.179 267.652 102.093 267.59 102.03 L 266.011 100.45 L 266.011 102.324 C 266.011 102.695 265.712 102.994 265.341 102.994 L 261.989 102.994 C 261.617 102.994 261.317 102.695 261.317 102.324 L 261.317 100.312 L 260.647 100.312 Z M 262.324 100.312 L 262.324 101.989 L 265.006 101.989 L 265.006 100.312 L 262.324 100.312 Z M 259.306 100.647 C 259.306 99.908 259.908 99.306 260.647 99.306 L 265.733 99.306 C 266.089 99.306 266.431 99.447 266.683 99.698 L 268.302 101.317 C 268.554 101.569 268.694 101.911 268.694 102.267 L 268.694 107.353 C 268.694 108.092 268.092 108.694 267.353 108.694 L 260.647 108.694 C 259.908 108.694 259.306 108.092 259.306 107.353 L 259.306 100.647 Z M 262.659 105.341 C 262.659 104.601 263.26 104 264 104 C 264.74 104 265.341 104.601 265.341 105.341 C 265.341 106.081 264.74 106.683 264 106.683 C 263.26 106.683 262.659 106.081 262.659 105.341 Z" style="stroke-width: 1;"/>
  <rect x="500.852" y="184.02" width="49.081" height="33.663" style="stroke: rgb(0, 0, 0); stroke-width: 1; fill: rgb(206, 255, 203);"/>
  <path d="M 544.873 210.962 C 543.592 210.962 542.432 211.469 541.579 212.295 C 541.4 212.469 541.114 212.464 540.942 212.285 C 540.77 212.106 540.773 211.821 540.952 211.648 C 541.965 210.665 543.349 210.06 544.873 210.06 C 546.397 210.06 547.781 210.665 548.796 211.648 C 548.975 211.822 548.979 212.107 548.806 212.285 C 548.632 212.463 548.346 212.469 548.168 212.295 C 547.314 211.469 546.154 210.962 544.873 210.962 Z M 544.197 215.698 C 544.197 215.324 544.5 215.021 544.873 215.021 C 545.247 215.021 545.55 215.324 545.55 215.698 C 545.55 216.071 545.247 216.374 544.873 216.374 C 544.5 216.374 544.197 216.071 544.197 215.698 Z M 543.182 214.206 C 543.017 214.394 542.732 214.411 542.545 214.246 C 542.357 214.081 542.34 213.796 542.506 213.609 C 543.083 212.955 543.931 212.541 544.873 212.541 C 545.816 212.541 546.663 212.955 547.241 213.609 C 547.406 213.796 547.388 214.081 547.201 214.246 C 547.015 214.411 546.729 214.392 546.565 214.206 C 546.15 213.737 545.547 213.442 544.873 213.442 C 544.199 213.442 543.596 213.737 543.182 214.206 Z" style="stroke-width: 1;"/>
  <text style="fill: rgb(51, 51, 51); font-family: Carlito; font-size: 6px; text-anchor: middle; white-space: pre;" transform="matrix(1, 0, 0, 1, 379.392093, -144.838853)" x="146" y="345.4490051269531">External<tspan x="146" dy="1em">​</tspan>Server</text>
  <path d="M 541.156 200.301 C 540.972 200.301 540.821 200.452 540.821 200.636 L 540.821 207.342 C 540.821 207.526 540.972 207.677 541.156 207.677 L 547.862 207.677 C 548.046 207.677 548.197 207.526 548.197 207.342 L 548.197 202.256 C 548.197 202.168 548.161 202.082 548.099 202.019 L 546.52 200.439 L 546.52 202.313 C 546.52 202.684 546.221 202.983 545.85 202.983 L 542.498 202.983 C 542.126 202.983 541.826 202.684 541.826 202.313 L 541.826 200.301 L 541.156 200.301 Z M 542.833 200.301 L 542.833 201.978 L 545.515 201.978 L 545.515 200.301 L 542.833 200.301 Z M 539.815 200.636 C 539.815 199.897 540.417 199.295 541.156 199.295 L 546.242 199.295 C 546.598 199.295 546.94 199.436 547.192 199.687 L 548.811 201.306 C 549.063 201.558 549.203 201.9 549.203 202.256 L 549.203 207.342 C 549.203 208.081 548.601 208.683 547.862 208.683 L 541.156 208.683 C 540.417 208.683 539.815 208.081 539.815 207.342 L 539.815 200.636 Z M 543.168 205.33 C 543.168 204.59 543.769 203.989 544.509 203.989 C 545.249 203.989 545.85 204.59 545.85 205.33 C 545.85 206.07 545.249 206.672 544.509 206.672 C 543.769 206.672 543.168 206.07 543.168 205.33 Z" style="stroke-width: 1;"/>
  <path style="fill: none; stroke: rgb(0, 0, 0);" d="M 515.904 144.355 L 515.877 179.985"/>
  <path style="fill: none; stroke: rgb(0, 0, 0);" d="M 513.196 172.668 L 515.857 176.169 L 518.829 172.669"/>
  <text style="fill: rgb(51, 51, 51); font-family: C059; font-size: 5px; white-space: pre; stroke-width: 1; text-anchor: middle; transform-origin: 152.854px 110.639px;" x="136.607" y="109.262" transform="matrix(0.573515, 0, 0, 0.573515, 391.521854, 54.825795)">Data is uploaded to<tspan x="136.60699462890625" dy="1em">​</tspan>an external server<tspan x="136.60699462890625" dy="1em">​</tspan>to then be processed<tspan x="136.60699462890625" dy="1em">​</tspan>and viewed later.</text>
</svg>